<svg xmlns="http://www.w3.org/2000/svg" viewBox="0 0 155.63396 179.71062">
  <defs>
    <radialGradient id="c" gradientUnits="userSpaceOnUse" cy="687.4" cx="414.02" gradientTransform="matrix(.0142 -1.5297 1.7153 .01591 -1033.5 1628.8)" r="86.831">
      <stop stop-color="#9558b2" offset="0"/>
      <stop stop-color="#fff" stop-opacity="0" offset="1"/>
    </radialGradient>
    <radialGradient id="b" gradientUnits="userSpaceOnUse" cy="628.65" cx="580.79" gradientTransform="matrix(1.7234 -.00186 .00163 1.5119 -998.84 55.629)" r="86.831">
      <stop stop-color="#cb3c33" offset="0"/>
      <stop stop-color="#fff" stop-opacity="0" offset="1"/>
    </radialGradient>
    <radialGradient id="a" gradientUnits="userSpaceOnUse" cy="645.45" cx="499.35" gradientTransform="matrix(-1.2657 1.227 -1.1253 -1.1608 1436.5 1012.5)" r="86.831">
      <stop stop-color="#389826" offset="0"/>
      <stop stop-color="#fff" stop-opacity="0" offset="1"/>
    </radialGradient>
  </defs>
  <path d="M155.18000024 134.55l-77.358 44.663-77.358-44.663 4e-7-89.326 77.358-44.663 77.358 44.663z" fill="#fff"/>
  <g fill="none">
    <g stroke-width="4.4511">
      <path stroke="url(#a)" d="M152.83 1005.7l-75.073 43.343L2.684 1005.7l4e-7-86.686 75.073-43.343 75.073 43.343z" transform="translate(2.4e-7 -872.65)"/>
      <path d="M152.83 1005.7l-75.073 43.343L2.684 1005.7l4e-7-86.686 75.073-43.343 75.073 43.343z" stroke="url(#b)" transform="translate(2.4e-7 -872.65)"/>
      <path d="M152.83 1005.7l-75.073 43.343L2.684 1005.7l4e-7-86.686 75.073-43.343 75.073 43.343z" stroke="url(#c)" transform="translate(2.4e-7 -872.65)"/>
    </g>
    <path stroke="#1a1a1a" stroke-width=".91732" d="M155.18000024 134.55l-77.358 44.663-77.358-44.663 4e-7-89.326 77.358-44.663 77.358 44.663z"/>
  </g>
  <g fill="#1a1a1a" transform="translate(2.4e-7 -872.65)">
    <path d="M48.098 919.53q.40375 0 .665.26125.26125.2375.26125.64125v5.89q0 .40375-.26125.665-2.2088 2.0425-5.8188 2.0425-2.5175 0-4.6312-1.2825-2.1138-1.2825-3.3725-3.4675-1.235-2.185-1.235-4.7738 0-2.565 1.235-4.75t3.3488-3.4675 4.655-1.2825q1.71 0 3.1112.49875t2.7075 1.5912q.26125.19.26125.54625 0 .19-.095.35625-.095.1425-.26125.21375-.0475.16625-.21375.285-.16625.095-.35625.095-.3325 0-.59375-.2375-.92625-.83125-2.0188-1.2112-1.0925-.38-2.5412-.38-1.995 0-3.705 1.0688-1.71 1.045-2.7312 2.8262-.9975 1.7812-.9975 3.8475 0 2.1138.9975 3.895t2.7075 2.8262 3.7288 1.045q2.3038 0 4.275-1.3538v-4.75h-3.705q-.40375 0-.665-.2375t-.26125-.59375.26125-.57q.26125-.2375.665-.2375h4.5838zM57.3 915.68q1.7575 0 3.1112.83125 1.3538.8075 2.09 2.2562.76 1.4488.76 3.3012 0 .38-.2375.6175-.2375.21375-.6175.21375h-9.595q.19 1.9475 1.52 3.1588 1.33 1.2112 3.325 1.2112.855 0 1.71-.285.87875-.30875 1.4012-.76.30875-.2375.64125-.2375.26125 0 .5225.19.30875.285.30875.64125 0 .30875-.26125.54625-.78375.665-1.995 1.1162-1.2112.4275-2.3275.4275-1.9 0-3.3962-.83125-1.4962-.855-2.3512-2.3512-.83125-1.52-.83125-3.42 0-1.9238.78375-3.42.8075-1.52 2.2088-2.3512 1.425-.855 3.23-.855zm0 1.6388q-1.805 0-2.9925 1.1162t-1.4488 2.945h8.6925q-.19-1.8288-1.33-2.945T57.3 917.3188zM72.483 915.65q1.6862 0 3.0162.7125 1.3538.7125 2.1138 2.09.76 1.3538.76 3.2538v6.175q0 .38-.26125.64125t-.64125.26125q-.40375 0-.665-.26125t-.26125-.64125v-6.175q0-2.1138-1.1875-3.2062-1.1638-1.1162-3.0638-1.1162-1.1638 0-2.1138.45125-.92625.45125-1.4725 1.2588-.54625.78375-.54625 1.7575v7.03q0 .40375-.26125.665-.2375.2375-.64125.2375t-.665-.2375q-.26125-.26125-.26125-.665v-11.162q0-.40375.26125-.665t.665-.26125.64125.26125q.26125.26125.26125.665v.8075q.78375-.87875 1.9-1.3775t2.4225-.49875zM87.915 915.68q1.7575 0 3.1112.83125 1.3538.8075 2.09 2.2562.76 1.4488.76 3.3012 0 .38-.2375.6175-.2375.21375-.6175.21375h-9.595q.19 1.9475 1.52 3.1588 1.33 1.2112 3.325 1.2112.855 0 1.71-.285.87875-.30875 1.4012-.76.30875-.2375.64125-.2375.26125 0 .5225.19.30875.285.30875.64125 0 .30875-.26125.54625-.78375.665-1.995 1.1162-1.2112.4275-2.3275.4275-1.9 0-3.3962-.83125-1.4962-.855-2.3512-2.3512-.83125-1.52-.83125-3.42 0-1.9238.78375-3.42.8075-1.52 2.2088-2.3512 1.425-.855 3.23-.855zm0 1.6388q-1.805 0-2.9925 1.1162t-1.4488 2.945h8.6925q-.19-1.8288-1.33-2.945t-2.9212-1.1162zM102.67 926.96q.38 0 .6175.26125t.2375.665q0 .38-.285.64125t-.7125.26125h-.49875q-1.2588 0-2.2562-.59375-.9975-.6175-1.5675-1.6388-.54625-1.045-.54625-2.3512v-6.3412H96.115q-.38 0-.6175-.21375-.21375-.2375-.21375-.57 0-.35625.21375-.57.2375-.2375.6175-.2375h1.5438v-3.6812q0-.40375.2375-.665.26125-.26125.665-.26125t.665.26125.26125.665v3.6812h2.6837q.38 0 .59375.2375.2375.21375.2375.57 0 .3325-.2375.57-.21375.21375-.59375.21375h-2.6837v6.3412q0 1.2112.7125 1.995.7125.76 1.8288.76h.64125zM106.84 916.72q0-.40375.26125-.665t.665-.26125.64125.26125q.26125.26125.26125.665v11.139q0 .40375-.26125.665-.2375.26125-.64125.26125t-.665-.26125-.26125-.665V916.72zm.92625-5.985q.5225 0 .9025.35625t.38.92625q0 .54625-.38.92625t-.92625.38-.92625-.38q-.35625-.38-.35625-.92625 0-.57.38-.92625t.92625-.35625zM118.88 915.68q2.9688 0 4.8212 2.28.19.21375.19.49875 0 .38-.40375.665-.21375.1425-.45125.1425-.35625 0-.68875-.35625-.7125-.78375-1.5675-1.1638-.855-.40375-1.9-.40375-1.3062 0-2.3275.64125-1.0212.6175-1.5912 1.7575-.54625 1.14-.54625 2.565 0 1.4012.59375 2.5412.59375 1.1162 1.6625 1.7575 1.0688.64125 2.4462.64125 1.9 0 3.0638-1.0212.30875-.26125.64125-.26125.285 0 .5225.19.3325.285.3325.64125 0 .30875-.2375.5225-1.71 1.5912-4.3225 1.5912-1.8525 0-3.325-.855-1.4725-.87875-2.3275-2.375-.83125-1.52-.83125-3.3725 0-1.9.8075-3.3962.8075-1.52 2.2325-2.375t3.2062-.855zM37.76 932.37q.38 0 .59375.2375.2375.2375.2375.59375 0 .2375-.11875.5225l-7.0775 16.601q-.26125.59375-.83125.59375-.30875 0-.5225-.11875-.19-.1425-.3325-.475l-7.0538-16.506q-.1425-.35625-.1425-.6175 0-.38.2375-.59375.26125-.2375.665-.2375.6175 0 .855.59375l6.2938 15.058 6.27-15.01q.1425-.35625.35625-.49875t.57-.1425zM44.515 937.81q1.8525 0 3.3488.87875 1.52.855 2.375 2.375.87875 1.52.87875 3.3725v5.5812q0 .38-.26125.64125t-.665.26125-.665-.2375q-.26125-.26125-.26125-.665v-1.425q-.83125 1.14-2.1138 1.805-1.2825.64125-2.8262.64125-1.805 0-3.2775-.855-1.4488-.87875-2.3038-2.375-.83125-1.52-.83125-3.3725t.855-3.3725q.87875-1.52 2.375-2.375 1.52-.87875 3.3725-.87875zm0 11.566q1.3538 0 2.4462-.64125 1.0925-.64125 1.71-1.7575.64125-1.14.64125-2.5412t-.64125-2.5175q-.6175-1.14-1.71-1.7812-1.0925-.665-2.4462-.665-1.3538 0-2.47.665-1.0925.64125-1.7338 1.7812-.6175 1.1162-.6175 2.5175 0 1.4012.6175 2.5412.64125 1.1162 1.7338 1.7575 1.1162.64125 2.47.64125zM60.517 937.79q.9975 0 1.5675.26125.59375.26125.59375.73625 0 .1425-.02375.21375-.095.3325-.30875.45125-.19.11875-.54625.11875-.21375 0-.73625-.0475-.19-.0237-.57-.0237-1.7812 0-2.9212.95-1.1162.95-1.1162 2.47v7.1012q0 .4275-.2375.665t-.665.2375-.665-.2375-.2375-.665v-11.186q0-.4275.2375-.665t.665-.2375.665.2375.2375.665v1.045q.68875-.9975 1.7575-1.5438 1.0688-.54625 2.3038-.54625zM65.885 938.86q0-.40375.26125-.665t.665-.26125.64125.26125q.26125.26125.26125.665v11.139q0 .40375-.26125.665-.2375.26125-.64125.26125t-.665-.26125-.26125-.665V938.86zm.92625-5.985q.5225 0 .9025.35625t.38.92625q0 .54625-.38.92625t-.92625.38-.92625-.38q-.35625-.38-.35625-.92625 0-.57.38-.92625t.92625-.35625zM78.284 937.81q1.8525 0 3.3488.87875 1.52.855 2.375 2.375.87875 1.52.87875 3.3725v5.5812q0 .38-.26125.64125t-.665.26125-.665-.2375q-.26125-.26125-.26125-.665v-1.425q-.83125 1.14-2.1138 1.805-1.2825.64125-2.8262.64125-1.805 0-3.2775-.855-1.4488-.87875-2.3038-2.375-.83125-1.52-.83125-3.3725t.855-3.3725q.87875-1.52 2.375-2.375 1.52-.87875 3.3725-.87875zm0 11.566q1.3538 0 2.4462-.64125 1.0925-.64125 1.71-1.7575.64125-1.14.64125-2.5412t-.64125-2.5175q-.6175-1.14-1.71-1.7812-1.0925-.665-2.4462-.665-1.3538 0-2.47.665-1.0925.64125-1.7338 1.7812-.6175 1.1162-.6175 2.5175 0 1.4012.6175 2.5412.64125 1.1162 1.7338 1.7575 1.1162.64125 2.47.64125zM94.144 949.09q.38 0 .6175.26125t.2375.665q0 .38-.285.64125t-.7125.26125h-.49875q-1.2588 0-2.2562-.59375-.9975-.6175-1.5675-1.6388-.54625-1.045-.54625-2.3512v-6.3412H87.589q-.38 0-.6175-.21375-.21375-.2375-.21375-.57 0-.35625.21375-.57.2375-.2375.6175-.2375h1.5438v-3.6812q0-.40375.2375-.665.26125-.26125.665-.26125t.665.26125.26125.665v3.6812h2.6838q.38 0 .59375.2375.2375.21375.2375.57 0 .3325-.2375.57-.21375.21375-.59375.21375h-2.6838v6.3412q0 1.2112.7125 1.995.7125.76 1.8288.76h.64125zM98.31 938.86q0-.40375.26125-.665t.665-.26125.64125.26125q.26125.26125.26125.665v11.139q0 .40375-.26125.665-.2375.26125-.64125.26125t-.665-.26125-.26125-.665V938.86zm.92625-5.985q.5225 0 .9025.35625t.38.92625q0 .54625-.38.92625t-.92625.38-.92625-.38q-.35625-.38-.35625-.92625 0-.57.38-.92625t.92625-.35625zM110.71 937.81q1.8762 0 3.3725.855 1.4962.855 2.3512 2.375.87875 1.52.87875 3.3962t-.855 3.3962q-.855 1.4962-2.375 2.3512-1.4962.855-3.3725.855-1.8762 0-3.3962-.855-1.4962-.855-2.3512-2.3512-.855-1.52-.855-3.3962t.855-3.3962 2.3512-2.375q1.52-.855 3.3962-.855zm0 1.6625q-1.3538 0-2.47.64125-1.0925.64125-1.7338 1.7812-.6175 1.1162-.6175 2.5412 0 1.4012.6175 2.5412.64125 1.1162 1.7338 1.7575 1.1162.64125 2.47.64125 1.3775 0 2.47-.64125t1.71-1.7575q.6175-1.14.6175-2.5412 0-1.425-.6175-2.5412-.6175-1.14-1.71-1.7812-1.0925-.64125-2.47-.64125zM127 937.79q1.6862 0 3.0162.7125 1.3538.7125 2.1138 2.09.76 1.3538.76 3.2538v6.175q0 .38-.26125.64125t-.64125.26125q-.40375 0-.665-.26125t-.26125-.64125v-6.175q0-2.1138-1.1875-3.2062-1.1638-1.1162-3.0638-1.1162-1.1638 0-2.1138.45125-.92625.45125-1.4725 1.2588-.54625.78375-.54625 1.7575v7.03q0 .40375-.26125.665-.2375.2375-.64125.2375t-.665-.2375q-.26125-.26125-.26125-.665v-11.162q0-.40375.26125-.665t.665-.26125.64125.26125q.26125.26125.26125.665v.8075q.78375-.87875 1.9-1.3775t2.4225-.49875z"/>
    <rect transform="scale(1 -1)" ry=".44598" height="3.2038" width="114.18" y="-972.93" x="20.632"/>
  </g>
  <g transform="matrix(1 0 0 -1 2.4e-7 -872.65)">
    <ellipse rx="5.5895" ry="5.5895" cy="-971.28" cx="21.59" fill="#cb3c33"/>
    <circle cy="-971.28" cx="35.59" r="5.5895" fill="#cb3c33"/>
    <ellipse rx="5.5895" ry="5.5895" cy="-971.28" cx="63.59" fill="#4063d8"/>
    <circle cy="-971.28" cx="49.59" r="5.5895" fill="#389826"/>
    <ellipse rx="5.5895" ry="5.5895" cy="-971.28" cx="133.59" fill="#4063d8"/>
    <circle cy="-971.28" cx="119.59" r="5.5895" fill="#cb3c33"/>
    <ellipse rx="5.5895" ry="5.5895" cy="-971.28" cx="105.59" fill="#4063d8"/>
    <ellipse rx="5.5895" ry="5.5895" cy="-971.28" cx="91.59" fill="#389826"/>
    <ellipse rx="5.5893" ry="5.5893" cy="-971.28" cx="77.589" fill="#9558b2"/>
    <rect ry=".44598" height="3.2038" width="114.18" y="-985.47" x="20.632" fill="#1a1a1a"/>
    <ellipse rx="5.5895" ry="5.5895" cy="-983.82" cx="21.59" fill="#389826"/>
    <circle cy="-983.82" cx="35.59" r="5.5895" fill="#cb3c33"/>
    <ellipse rx="5.5895" ry="5.5895" cy="-983.82" cx="63.59" fill="#4063d8"/>
    <circle cy="-983.82" cx="49.59" r="5.5895" fill="#389826"/>
    <ellipse rx="5.5895" ry="5.5895" cy="-983.82" cx="133.59" fill="#4063d8"/>
    <circle cy="-983.82" cx="119.59" r="5.5895" fill="#cb3c33"/>
    <ellipse rx="5.5895" ry="5.5895" cy="-983.82" cx="105.59" fill="#4063d8"/>
    <ellipse rx="5.5895" ry="5.5895" cy="-983.82" cx="91.59" fill="#389826"/>
    <ellipse rx="5.5893" ry="5.5893" cy="-983.82" cx="77.589" fill="#9558b2"/>
    <rect ry=".44598" height="3.2038" width="114.18" y="-998.07" x="20.632" fill="#1a1a1a"/>
    <ellipse rx="5.5895" ry="5.5895" cy="-996.42" cx="21.59" fill="#389826"/>
    <circle cy="-996.42" cx="35.59" r="5.5895" fill="#cb3c33"/>
    <ellipse rx="5.5895" ry="5.5895" cy="-996.42" cx="63.589" fill="#4063d8"/>
    <circle cy="-996.42" cx="49.589" r="5.5895" fill="#389826"/>
    <ellipse rx="5.5895" ry="5.5895" cy="-996.42" cx="133.59" fill="#9558b2"/>
    <circle cy="-996.42" cx="119.59" r="5.5895" fill="#cb3c33"/>
    <ellipse rx="5.5895" ry="5.5895" cy="-996.42" cx="105.59" fill="#4063d8"/>
    <ellipse rx="5.5895" ry="5.5895" cy="-996.42" cx="91.59" fill="#389826"/>
    <ellipse rx="5.5893" ry="5.5893" cy="-996.42" cx="77.589" fill="#cb3c33"/>
  </g>
</svg>
